#N canvas 412 806 1202 823 12;
#X obj 48 75 netreceive -u -b;
#X text 187 75 en max = udpreceive;
#X obj 48 100 oscparse;
#X obj 47 164 route zones;
#X obj 47 194 route presence;
#X msg 47 284 0 0;
#X obj 48 124 list trim;
#X obj 47 231 list prepend set;
#X obj 47 255 list trim;
#X obj 230 99 list split 1;
#X obj 229 129 tgl 15 0 empty empty empty 17 7 0 10 -262144 -1 -1 0
1;
#X obj 234 284 netsend -u -b;
#X msg 231 245 connect localhost 7700;
#X obj 230 193 oscformat /lx/1;
#X obj 231 222 loadbang;
#X obj 423 134 tgl 15 0 empty empty empty 17 7 0 10 -262144 -1 -1 0
1;
#X obj 424 188 oscformat /lx/2;
#X obj 423 154 change;
#X obj 229 149 change;
#X msg 50 30 listen 54321 239.200.200.200;
#X connect 0 0 2 0;
#X connect 2 0 6 0;
#X connect 3 0 4 0;
#X connect 4 0 7 0;
#X connect 4 0 9 0;
#X connect 6 0 3 0;
#X connect 7 0 8 0;
#X connect 8 0 5 0;
#X connect 9 0 10 0;
#X connect 9 1 15 0;
#X connect 10 0 18 0;
#X connect 12 0 11 0;
#X connect 13 0 11 0;
#X connect 14 0 12 0;
#X connect 15 0 17 0;
#X connect 16 0 11 0;
#X connect 17 0 16 0;
#X connect 18 0 13 0;
#X connect 19 0 0 0;
