#N canvas 708 329 958 626 12;
#X obj 48 75 netreceive -u -b;
#X text 187 75 en max = udpreceive;
#X obj 48 100 oscparse;
#X obj 47 164 route zones;
#X obj 47 194 route presence;
#X msg 47 316 0 7;
#X obj 48 124 list trim;
#X obj 47 231 list prepend set;
#X obj 47 255 list trim;
#X msg 117 343 connect localhost 4444;
#X floatatom 229 168 5 0 0 0 - - -;
#X obj 235 121 list split 1;
#X floatatom 345 166 5 0 0 0 - - -;
#X obj 324 393 netsend -u -b;
#X obj 579 49 loadbang;
#X obj 230 243 oscformat z1;
#X obj 348 243 oscformat z2;
#X msg 50 30 listen 54321 localhost;
#X connect 0 0 2 0;
#X connect 2 0 6 0;
#X connect 3 0 4 0;
#X connect 4 0 7 0;
#X connect 4 0 11 0;
#X connect 6 0 3 0;
#X connect 7 0 8 0;
#X connect 8 0 5 0;
#X connect 9 0 13 0;
#X connect 10 0 15 0;
#X connect 11 0 10 0;
#X connect 11 1 12 0;
#X connect 12 0 16 0;
#X connect 15 0 13 0;
#X connect 16 0 13 0;
#X connect 17 0 0 0;
