#N canvas 448 551 1202 823 12;
#X obj 48 75 netreceive -u -b;
#X text 187 75 en max = udpreceive;
#X obj 48 100 oscparse;
#X obj 47 164 route zones;
#X obj 47 194 route presence;
#X msg 47 316 0 0;
#X obj 48 124 list trim;
#X obj 47 231 list prepend set;
#X obj 47 255 list trim;
#X msg 50 30 listen 54321 239.200.200.200;
#X floatatom 722 375 5 0 0 0 - - -;
#X floatatom 566 362 5 0 0 0 - - -;
#X msg 314 393 connect localhost 4444;
#X msg 558 401 send m1 \$1;
#X msg 711 411 send m2 \$1;
#X floatatom 229 168 5 0 0 0 - - -;
#X obj 235 121 list split 1;
#X floatatom 345 166 5 0 0 0 - - -;
#X msg 222 226 send zone1 \$1;
#X text 306 317 COMMENT ENVOYER DES DONNÉES PUREDATA À MAX?????;
#X msg 363 225 send zone2 \$1;
#X obj 344 502 netsend 1 -u -b;
#X connect 0 0 2 0;
#X connect 2 0 6 0;
#X connect 3 0 4 0;
#X connect 4 0 7 0;
#X connect 4 0 16 0;
#X connect 6 0 3 0;
#X connect 7 0 8 0;
#X connect 8 0 5 0;
#X connect 9 0 0 0;
#X connect 10 0 14 0;
#X connect 11 0 13 0;
#X connect 12 0 21 0;
#X connect 13 0 21 0;
#X connect 14 0 21 0;
#X connect 15 0 18 0;
#X connect 16 0 15 0;
#X connect 16 1 17 0;
#X connect 17 0 20 0;
